<?xml version="1.0" standalone="no"?>
<!DOCTYPE svg PUBLIC "-//W3C//DTD SVG 20010904//EN"
 "http://www.w3.org/TR/2001/REC-SVG-20010904/DTD/svg10.dtd">
<svg version="1.0" xmlns="http://www.w3.org/2000/svg"
 width="500.000000pt" height="500.000000pt" viewBox="0 0 500.000000 500.000000"
 preserveAspectRatio="xMidYMid meet">

<g transform="translate(0.000000,500.000000) scale(0.100000,-0.100000)"
fill="#000000" stroke="none">
<path d="M0 2500 l0 -2500 1113 1 1112 1 -140 24 c-153 27 -245 50 -375 94
-708 240 -1272 782 -1539 1477 -165 427 -206 929 -115 1380 218 1077 1123
1892 2209 1993 723 67 1429 -178 1956 -678 293 -279 525 -644 653 -1032 54
-163 105 -420 119 -600 2 -25 4 492 5 1148 l2 1192 -2500 0 -2500 0 0 -2500z"/>
<path d="M2220 4929 c-107 -11 -307 -53 -425 -89 -750 -225 -1352 -801 -1615
-1546 -171 -484 -180 -1062 -23 -1549 43 -134 149 -378 210 -480 202 -340 470
-624 785 -832 151 -100 401 -221 572 -278 798 -265 1671 -107 2321 420 280
227 496 495 654 814 115 229 181 431 228 696 25 137 27 172 27 400 0 263 -14
386 -65 590 -180 709 -650 1293 -1300 1614 -227 112 -466 189 -707 227 -116
19 -535 27 -662 13z m431 -164 c70 -37 116 -130 105 -214 -8 -58 -33 -99 -85
-138 -38 -30 -49 -33 -110 -33 -87 0 -140 31 -176 104 -60 119 -3 257 121 296
35 11 109 3 145 -15z m-382 -14 c11 -7 11 -15 2 -43 -11 -35 -12 -35 -64 -30
-39 3 -56 0 -65 -11 -21 -25 -2 -45 66 -68 88 -29 122 -63 122 -122 0 -29 -7
-53 -20 -70 -22 -28 -96 -57 -144 -57 -38 0 -103 18 -111 30 -5 9 20 80 28 80
3 0 21 -7 42 -16 42 -17 90 -11 104 14 15 28 -6 50 -63 66 -103 30 -147 96
-111 165 24 48 69 71 140 71 33 0 66 -4 74 -9z m634 -2 c20 -5 37 -11 37 -12
0 -1 -11 -52 -25 -112 -40 -176 -33 -205 45 -205 39 0 49 22 80 170 12 58 26
109 30 113 4 5 24 5 44 2 45 -9 45 -11 6 -175 -32 -137 -48 -166 -104 -194
-34 -17 -44 -17 -93 -6 -38 8 -67 23 -92 45 -34 31 -36 37 -35 92 0 32 10 96
22 143 11 47 23 100 27 118 7 36 6 36 58 21z m-1110 -106 c3 -5 2 -24 -2 -43
-5 -31 -10 -35 -41 -38 -40 -4 -96 -35 -110 -62 -6 -10 -10 -39 -10 -63 0 -37
5 -50 32 -76 45 -44 99 -46 160 -5 46 30 49 30 78 -1 l24 -25 -29 -30 c-39
-41 -128 -74 -178 -66 -87 14 -170 83 -183 152 -18 98 26 189 116 237 50 26
133 37 143 20z m1558 -23 c41 -17 102 -42 137 -57 34 -14 62 -29 62 -33 0 -4
-65 -54 -145 -111 -100 -70 -142 -105 -133 -111 7 -4 44 -20 81 -35 55 -21 67
-30 64 -45 -9 -34 -9 -34 240 141 l78 54 35 -21 c27 -15 34 -26 32 -44 -8 -61
-75 -384 -81 -390 -4 -4 -23 3 -43 17 -34 23 -36 26 -27 62 8 35 6 40 -22 64
-17 15 -46 35 -64 45 -34 18 -35 18 -66 -5 -26 -19 -36 -22 -51 -12 -39 24
-57 33 -198 92 -80 33 -149 64 -153 69 -5 4 57 54 136 111 80 57 143 107 139
110 -4 4 -32 17 -62 30 -78 32 -80 34 -67 69 6 17 17 30 23 30 7 0 45 -14 85
-30z m-1956 -215 l0 -40 -44 -1 c-37 -1 -49 -6 -73 -33 -34 -38 -36 -78 -7
-131 42 -75 120 -93 170 -39 30 32 35 54 20 78 -7 11 -14 10 -39 -8 -39 -27
-44 -27 -64 6 l-16 27 74 48 c41 26 76 48 79 48 2 0 16 -20 30 -43 107 -184
-130 -366 -291 -224 -67 58 -92 134 -70 211 26 87 108 149 191 144 40 -3 40
-3 40 -43z m1300 -225 c233 -27 467 -104 666 -221 166 -97 367 -272 485 -424
358 -460 457 -1061 265 -1615 -162 -469 -554 -866 -1021 -1036 -172 -62 -322
-92 -510 -101 -864 -40 -1619 572 -1760 1427 -39 240 -21 536 47 760 171 568
624 1009 1194 1164 186 50 435 68 634 46z m-2250 -1542 l31 -93 92 -3 c51 -1
92 -6 92 -10 0 -4 -32 -29 -70 -55 -39 -27 -70 -54 -70 -62 0 -11 33 -125 47
-161 9 -25 -13 -15 -80 36 -36 28 -71 50 -76 50 -6 0 -40 -22 -77 -50 -57 -43
-84 -58 -84 -47 0 1 11 38 25 82 14 44 25 85 25 92 0 6 -31 33 -70 60 -38 26
-70 51 -70 55 0 4 42 9 93 10 l92 3 29 93 c17 50 32 92 36 92 3 0 19 -42 35
-92z m4303 -96 c51 -1 92 -6 92 -10 0 -4 -32 -29 -70 -57 -39 -27 -70 -56 -70
-65 0 -8 12 -46 25 -85 14 -38 25 -73 25 -77 0 -16 -19 -6 -85 44 -77 58 -63
59 -170 -16 -30 -22 -57 -37 -59 -35 -2 2 9 44 24 92 l28 88 -52 38 c-28 21
-61 44 -73 52 -13 8 -23 17 -23 21 0 4 42 9 93 10 l92 3 23 70 c43 133 40 132
77 25 l32 -95 91 -3z m-3574 -1401 c73 -73 84 -119 41 -169 -19 -22 -35 -32
-56 -32 -28 0 -29 -1 -22 -45 7 -55 -13 -90 -65 -112 -29 -12 -43 -13 -72 -4
-44 14 -165 124 -157 144 8 21 250 277 262 277 6 0 37 -26 69 -59z m2811 9 c2
0 13 -15 24 -34 37 -59 27 -111 -32 -173 l-31 -33 30 -32 c72 -79 70 -75 44
-103 -23 -25 -55 -33 -62 -16 -1 4 -57 66 -123 135 -66 70 -121 131 -123 135
-5 14 128 123 166 136 31 11 43 11 71 -1 18 -8 35 -14 36 -14z m-239 -209
c102 -47 149 -180 98 -282 -19 -37 -76 -85 -119 -99 -116 -38 -248 55 -262
184 -17 151 141 261 283 197z m-2307 -11 l28 -19 -33 -153 c-18 -84 -38 -179
-46 -211 l-13 -58 -35 26 c-31 23 -35 31 -35 71 0 44 -2 47 -57 86 l-58 41
-33 -26 -34 -26 -37 25 c-20 14 -36 28 -36 32 1 10 332 231 348 231 8 1 26 -8
41 -19z m244 -142 c67 -36 97 -73 97 -118 0 -59 -56 -120 -110 -120 -25 0 -25
5 9 -125 10 -38 16 -72 14 -74 -1 -3 -25 6 -51 18 -48 23 -49 24 -61 87 -6 35
-16 76 -22 92 -10 27 -11 26 -42 -40 l-32 -67 -31 14 c-18 7 -35 18 -38 24 -4
5 17 61 45 123 29 62 64 141 80 175 32 72 28 71 142 11z m1794 -144 c40 -93
73 -174 73 -181 0 -10 -50 -33 -72 -33 -4 0 -22 31 -39 69 l-31 69 -50 -22
c-28 -11 -53 -26 -55 -33 -3 -7 7 -38 21 -69 14 -31 26 -60 26 -65 0 -9 -53
-39 -70 -39 -6 0 -18 17 -26 38 -9 20 -22 51 -29 67 -54 120 -105 239 -105
246 0 5 17 17 38 28 l39 20 29 -70 c33 -78 40 -81 108 -48 l44 22 -29 70 c-16
38 -29 71 -29 73 0 6 64 32 74 30 5 -1 42 -78 83 -172z m-1479 22 c62 -32 72
-107 22 -158 -27 -27 -29 -31 -14 -45 26 -26 34 -59 23 -97 -13 -48 -51 -76
-104 -76 -41 0 -172 34 -187 49 -4 3 8 58 27 121 19 63 44 147 55 187 l21 71
63 -18 c34 -9 76 -25 94 -34z m1112 -8 c0 -54 -9 -64 -49 -60 -83 8 -114 -48
-38 -69 146 -40 169 -57 171 -129 1 -48 -26 -87 -77 -111 -45 -20 -130 -25
-170 -10 -24 9 -25 12 -15 51 8 32 14 40 27 34 9 -3 35 -8 57 -11 33 -4 46 -1
63 16 34 34 14 57 -62 72 -108 21 -153 90 -112 170 25 47 70 69 143 69 58 0
62 -2 62 -22z m-874 -34 c49 -9 113 -15 143 -14 145 4 213 -26 226 -99 8 -46
-14 -104 -44 -121 -12 -6 -21 -16 -21 -23 0 -7 25 -42 55 -79 30 -36 55 -71
55 -77 0 -12 -38 -13 -82 -2 -17 4 -45 30 -80 75 l-53 70 -5 -70 -5 -69 -42
-3 -43 -3 -1 193 c-1 106 -4 182 -6 168 -7 -34 -16 -38 -71 -29 -82 13 -82 13
-82 -30 0 -38 1 -39 43 -46 68 -10 77 -15 77 -38 0 -42 -13 -49 -77 -41 l-61
6 -7 -32 c-9 -41 -2 -46 65 -57 55 -8 55 -8 58 -46 3 -30 0 -37 -15 -37 -35 1
-203 27 -209 33 -3 3 3 63 14 134 12 70 24 153 27 183 4 30 9 58 12 63 6 10
30 9 129 -9z"/>
<path d="M2508 4683 c-14 -9 -31 -27 -37 -40 -27 -59 -2 -155 44 -170 70 -22
128 12 141 83 19 104 -66 177 -148 127z"/>
<path d="M3650 4259 l-43 -31 29 -24 c35 -28 41 -29 48 -6 9 32 18 92 14 92
-3 0 -24 -14 -48 -31z"/>
<path d="M2338 4159 c-464 -45 -905 -297 -1189 -679 -135 -183 -222 -370 -280
-604 -123 -505 4 -1057 336 -1455 448 -538 1152 -746 1810 -535 611 196 1057
722 1150 1355 19 136 19 352 0 488 -101 693 -630 1256 -1315 1400 -174 37
-338 47 -512 30z m56 -819 c159 -45 273 -132 355 -270 92 -154 95 -359 9 -521
-86 -162 -268 -284 -453 -303 -63 -7 -60 5 5 19 56 12 171 71 224 114 52 44
91 89 84 97 -3 2 -31 -11 -63 -31 -33 -19 -63 -35 -68 -35 -5 0 10 22 35 48
126 134 180 295 158 468 -6 43 -16 84 -23 91 -9 10 -12 -10 -12 -96 0 -99 -2
-113 -29 -170 -16 -33 -32 -61 -35 -61 -3 0 -6 44 -7 98 -1 109 -18 162 -74
226 -95 108 -303 154 -477 106 -74 -20 -163 -67 -163 -85 0 -7 44 -10 120 -10
97 0 122 -3 135 -16 15 -15 15 -19 1 -47 -20 -39 -20 -76 -1 -92 22 -18 19
-27 -15 -38 -31 -11 -56 -7 -122 22 -21 9 -62 16 -91 16 -59 0 -189 -30 -236
-55 -46 -23 -38 -6 25 55 85 84 98 122 19 60 -21 -17 -40 -28 -42 -26 -7 7 38
129 65 175 38 65 137 162 206 201 141 80 321 103 470 60z m274 14 c18 -5 21
-11 16 -28 -9 -30 -9 -30 -50 -5 -33 20 -35 23 -18 30 25 10 25 10 52 3z m167
-50 c-27 -52 -30 -81 -11 -133 13 -36 36 -54 36 -28 0 9 11 29 25 45 43 51
156 66 249 34 76 -26 67 -37 -31 -37 -81 0 -163 -19 -148 -33 3 -3 49 -6 103
-6 70 -1 120 -8 181 -25 51 -14 97 -21 118 -18 80 13 -22 -45 -119 -68 -35 -8
-88 -15 -119 -15 -64 0 -174 33 -208 64 l-24 21 6 -35 c14 -84 17 -148 9 -190
l-8 -45 -12 78 c-16 106 -44 180 -92 243 -56 75 -51 131 16 174 48 31 56 24
29 -26z m-1011 -9 c-15 -12 -66 -14 -281 -15 -174 0 -264 -4 -268 -11 -4 -6
50 -109 120 -231 112 -195 135 -248 108 -248 -7 0 -225 370 -281 477 l-22 43
322 0 c285 0 320 -2 302 -15z m1866 9 c0 -12 -246 -442 -265 -462 -10 -11 -14
-11 -22 0 -8 10 20 66 108 218 65 112 116 207 113 211 -2 4 -99 8 -215 9 -163
0 -218 4 -238 15 -23 13 5 14 247 15 149 0 272 -3 272 -6z m-640 -320 c47 -6
66 -15 135 -67 116 -88 195 -157 195 -171 0 -20 59 -69 195 -161 239 -163 274
-195 209 -195 -14 0 -45 -14 -69 -31 -31 -22 -49 -29 -65 -24 -18 6 -21 3 -18
-12 2 -10 26 -29 61 -46 l57 -28 0 -55 c0 -30 -5 -64 -10 -74 -22 -42 -216
-160 -262 -160 -28 0 -57 40 -64 88 -5 34 -1 66 15 120 12 41 20 77 17 79 -8
9 -54 -71 -72 -125 -27 -85 -6 -155 57 -188 30 -15 36 -15 98 6 36 12 88 35
114 52 26 17 51 27 55 23 4 -3 7 -32 7 -62 0 -50 -3 -58 -34 -83 -18 -16 -67
-46 -108 -66 -77 -39 -96 -54 -69 -54 9 0 16 -5 16 -11 0 -15 -68 -96 -101
-119 l-27 -20 19 50 c20 52 25 90 12 89 -5 0 -20 -26 -35 -57 -15 -32 -43 -76
-63 -99 -36 -43 -124 -103 -150 -103 -8 0 -36 23 -62 51 -26 29 -82 74 -123
102 -41 28 -114 90 -162 139 -49 48 -88 82 -88 75 0 -25 60 -114 119 -179 l62
-67 -68 5 c-119 10 -165 31 -250 116 -60 58 -72 46 -28 -29 13 -24 20 -43 15
-43 -19 0 -124 108 -141 145 -12 25 -19 64 -19 102 0 54 6 73 46 152 26 50 50
89 54 86 4 -3 8 -23 8 -45 1 -93 51 -207 125 -287 62 -68 65 -55 11 62 -28 61
-45 191 -27 208 3 4 22 -17 41 -46 71 -107 123 -157 241 -234 64 -42 133 -92
154 -111 55 -54 47 -18 -17 69 -56 76 -72 120 -58 158 8 21 9 21 44 -16 20
-21 59 -60 88 -88 29 -27 61 -68 71 -90 23 -52 33 -30 27 63 -5 80 -39 156
-104 230 -24 28 -44 52 -44 55 0 3 17 0 38 -6 23 -7 60 -35 99 -72 67 -67 92
-125 94 -214 l1 -46 15 35 c19 44 13 132 -14 186 -37 72 -108 182 -144 221
-20 21 -44 63 -54 93 -21 62 -70 116 -162 175 -104 67 -120 127 -65 246 40 85
64 179 65 257 2 58 4 63 22 58 11 -3 45 -9 75 -12z m-606 -156 c11 -6 23 -12
24 -14 13 -10 -44 -73 -100 -110 -70 -47 -131 -64 -231 -64 l-49 0 7 -30 c5
-23 3 -30 -9 -30 -26 0 -26 -16 0 -91 27 -80 43 -199 27 -199 -5 0 -18 9 -28
20 -28 31 -113 82 -130 78 -13 -2 -11 -10 13 -43 33 -45 57 -115 67 -190 l6
-50 -20 33 c-12 18 -21 35 -21 37 0 13 -52 86 -57 81 -3 -3 6 -52 20 -108 23
-93 58 -308 52 -316 -5 -6 -60 27 -91 55 -60 55 -144 187 -144 229 0 8 -6 14
-12 11 -14 -4 -13 -56 3 -146 5 -30 7 -56 5 -59 -3 -2 -26 14 -53 36 -56 46
-126 87 -166 96 -48 11 -28 -12 74 -90 104 -80 138 -120 192 -221 41 -78 88
-138 104 -132 7 3 0 30 -18 74 -28 70 -36 115 -21 115 5 0 27 -13 50 -29 27
-20 50 -50 70 -91 l29 -62 26 33 c40 54 58 108 64 192 7 87 18 85 28 -5 4 -32
10 -58 14 -58 14 0 79 154 92 215 10 52 13 57 20 36 10 -26 -9 -118 -36 -175
-29 -60 -90 -144 -157 -215 l-67 -70 -12 37 c-13 40 -52 107 -69 117 -16 10
-12 -17 14 -81 26 -63 43 -134 32 -134 -20 0 -189 157 -215 200 -58 95 -161
190 -205 190 -17 0 -14 -5 18 -32 49 -40 121 -131 108 -136 -18 -6 -63 27
-141 102 l-73 71 6 -40 7 -40 -30 50 c-50 86 -86 113 -165 124 -38 6 -76 17
-85 25 -18 18 -20 16 49 44 66 26 107 19 158 -28 25 -23 34 -26 38 -15 10 26
-17 84 -54 115 -48 39 -74 39 -32 0 39 -36 34 -48 -9 -26 -36 19 -92 21 -88 4
3 -18 -83 -38 -108 -25 -49 25 -47 65 4 94 57 33 71 90 16 65 -19 -9 -25 -9
-25 1 0 14 7 21 217 255 136 152 159 173 180 167 21 -5 23 -3 18 18 -5 19 2
28 42 54 81 52 114 65 174 70 72 7 133 -9 179 -47 34 -28 35 -31 38 -109 2
-45 7 -81 11 -80 3 0 26 32 51 71 60 93 147 174 202 187 49 11 140 6 172 -11z
m-1414 -260 l13 -48 61 0 61 0 -34 -28 c-19 -15 -41 -32 -48 -37 -11 -8 -11
-19 2 -60 8 -28 15 -54 15 -58 0 -5 -22 7 -49 27 l-48 36 -47 -36 c-51 -38
-55 -33 -31 36 8 23 15 43 15 45 0 1 -21 17 -47 36 l-48 34 60 5 c60 5 60 5
73 45 21 66 22 69 31 59 4 -5 14 -30 21 -56z m3074 -48 c67 -1 68 1 -9 -55
l-28 -21 16 -49 c9 -26 15 -51 12 -53 -3 -3 -25 9 -48 26 l-44 31 -48 -35
c-27 -18 -50 -32 -52 -30 -2 2 5 28 16 57 12 29 17 56 13 59 -4 3 -25 19 -47
36 l-40 29 59 5 c59 5 59 5 73 45 7 22 16 47 19 55 4 9 14 -6 27 -42 l21 -58
60 0z m-1263 -50 c14 -25 48 -57 88 -85 92 -62 117 -83 109 -90 -3 -3 -28 5
-55 18 -26 14 -83 33 -126 43 l-77 19 0 33 c0 29 26 102 35 102 2 0 14 -18 26
-40z m81 -200 c56 -17 142 -66 201 -113 30 -25 19 -25 -50 -1 -38 13 -80 24
-94 24 -82 0 -171 54 -155 95 7 20 21 19 98 -5z m-536 -504 c9 -15 14 -29 10
-33 -11 -11 -45 28 -62 72 -14 37 -14 49 -3 82 l13 38 12 -67 c7 -36 20 -78
30 -92z m-62 -336 c62 -107 117 -195 123 -197 5 -2 26 27 47 64 99 175 142
243 154 243 6 0 12 -7 12 -15 0 -15 -183 -340 -205 -363 -10 -12 -21 0 -57 65
-25 43 -84 147 -132 230 -78 136 -95 181 -65 171 5 -2 61 -91 123 -198z"/>
<path d="M3215 2669 c-22 -5 -67 -11 -100 -15 l-60 -7 35 -11 c20 -6 49 -20
65 -32 45 -32 64 -35 95 -19 41 21 77 19 85 -5 8 -24 25 -27 25 -4 0 39 -53
105 -84 103 -12 -1 -39 -5 -61 -10z m35 -38 c0 -22 -28 -31 -56 -20 l-29 12
25 7 c35 11 60 11 60 1z"/>
<path d="M2278 2759 c-68 -10 -93 -22 -109 -50 -14 -27 7 -54 21 -28 7 13 20
15 52 12 35 -4 48 -1 70 19 15 12 37 31 50 40 l23 17 -25 -1 c-14 0 -51 -4
-82 -9z"/>
<path d="M1704 2630 c-26 -22 -54 -50 -61 -62 -15 -28 -17 -74 -3 -83 6 -4 10
6 10 24 0 18 10 41 26 58 20 22 23 23 15 6 -20 -41 -11 -43 45 -13 31 16 65
30 74 30 10 0 29 9 43 20 31 24 34 25 40 3 3 -12 5 -9 6 7 2 39 -17 50 -85 50
-57 0 -65 -3 -110 -40z m126 12 c0 -17 -25 -32 -52 -32 -36 0 -36 15 0 28 34
13 52 14 52 4z"/>
<path d="M1092 1067 c-12 -13 -22 -28 -22 -35 0 -16 36 -33 54 -26 22 8 31 51
16 69 -17 20 -23 19 -48 -8z"/>
<path d="M975 940 c-28 -29 -28 -30 -10 -50 26 -29 54 -34 76 -14 10 9 19 23
19 29 0 14 -38 65 -49 65 -4 0 -20 -13 -36 -30z"/>
<path d="M3849 1061 l-23 -19 27 -36 c32 -42 50 -45 71 -14 45 63 -15 118 -75
69z"/>
<path d="M3630 873 c-8 -3 -27 -17 -42 -31 -21 -20 -28 -35 -28 -65 0 -96 84
-161 158 -123 38 20 52 44 52 88 0 72 -84 151 -140 131z"/>
<path d="M1308 794 c-45 -29 -46 -36 -13 -58 35 -23 43 -20 50 17 4 17 9 40
11 50 7 23 -3 21 -48 -9z"/>
<path d="M1600 688 c-21 -47 -15 -58 31 -58 48 0 67 51 31 83 -28 26 -41 21
-62 -25z"/>
<path d="M1896 589 c-9 -47 -8 -49 24 -49 23 0 31 5 36 25 7 29 -10 55 -36 55
-12 0 -20 -11 -24 -31z"/>
<path d="M1854 447 c-2 -7 -6 -26 -7 -42 -2 -23 3 -29 27 -36 38 -10 66 5 66
36 0 40 -73 76 -86 42z"/>
<path d="M2430 480 c0 -44 3 -50 21 -50 36 0 59 19 59 48 0 36 -17 52 -52 52
-27 0 -28 -2 -28 -50z"/>
<path d="M4990 2304 c0 -66 -37 -303 -66 -419 -126 -505 -419 -975 -814 -1303
-366 -304 -738 -477 -1196 -556 l-139 -24 1113 -1 1112 -1 0 1175 c0 646 -2
1175 -5 1175 -3 0 -5 -21 -5 -46z"/>
</g>
</svg>
